<?xml version="1.0" encoding="UTF-8" standalone="no"?>
<svg
   width="15.999999"
   height="16"
   viewBox="0 0 19.199999 19.2"
   version="1.1"
   id="svg2"
   xmlns="http://www.w3.org/2000/svg"
   xmlns:svg="http://www.w3.org/2000/svg">
  <defs
     id="defs2" />
  <g
     fill="none"
     fill-rule="evenodd"
     id="g2">
    <path
       d="M 24,0 V 24 H 0 V 0 Z m -11.407,23.258 -0.011,0.002 -0.071,0.035 -0.02,0.004 -0.014,-0.004 -0.071,-0.035 c -0.01,-0.004 -0.019,-0.001 -0.024,0.005 l -0.004,0.01 -0.017,0.428 0.005,0.02 0.01,0.013 0.104,0.074 0.015,0.004 0.012,-0.004 0.104,-0.074 0.012,-0.016 0.004,-0.017 -0.017,-0.427 c -0.002,-0.01 -0.009,-0.017 -0.017,-0.018 z m 0.265,-0.113 -0.013,0.002 -0.185,0.093 -0.01,0.01 -0.003,0.011 0.018,0.43 0.005,0.012 0.008,0.007 0.201,0.093 c 0.012,0.004 0.023,0 0.029,-0.008 l 0.004,-0.014 -0.034,-0.614 c -0.003,-0.012 -0.01,-0.02 -0.02,-0.022 z m -0.715,0.002 a 0.023,0.023 0 0 0 -0.027,0.006 l -0.006,0.014 -0.034,0.614 c 0,0.012 0.007,0.02 0.017,0.024 l 0.015,-0.002 0.201,-0.093 0.01,-0.008 0.004,-0.011 0.017,-0.43 -0.003,-0.012 -0.01,-0.01 z"
       id="path1" />
    <path
       fill="#ffffff"
       d="m 18.269932,0.93006772 a 3.1748026,3.1748026 0 0 1 0,4.49022898 l -1.622324,1.622325 a 3.1652782,3.1652782 0 0 1 -0.614854,3.6086923 l -0.756661,0.755603 a 2.1165351,2.1165351 0 0 1 -2.992781,0 L 5.4204468,18.269783 A 3.1748026,3.1748026 0 0 1 3.1748031,19.2 H 1.2699215 A 1.269921,1.269921 0 0 1 5.0000007e-7,17.930079 V 16.025197 A 3.1748026,3.1748026 0 0 1 0.9312759,13.779553 L 7.7930826,6.9166877 a 2.1165351,2.1165351 0 0 1 0,-2.992781 l 0.755603,-0.755603 a 3.1652782,3.1652782 0 0 1 3.6086924,-0.615912 l 1.622325,-1.62232398 a 3.1748026,3.1748026 0 0 1 4.490229,0 z M 9.2905312,8.4130777 2.4266079,15.277002 2.3345387,15.38177 a 1.0582675,1.0582675 0 0 0 -0.2180031,0.643427 v 1.058268 h 1.0582675 l 0.1396913,-0.0095 A 1.0582675,1.0582675 0 0 0 3.9229982,16.773392 L 10.786922,9.9094687 Z m 7.4819518,-5.986619 a 1.0582675,1.0582675 0 0 0 -1.49639,0 l -2.237178,2.238235 a 1.0688502,1.0688502 0 0 1 -1.511206,0 1.0476849,1.0476849 0 0 0 -1.481574,0 l -0.7556038,0.755603 4.4891718,4.489172 0.755603,-0.755603 a 1.0476849,1.0476849 0 0 0 0,-1.481575 1.0688502,1.0688502 0 0 1 0,-1.511206 l 2.238235,-2.237178 a 1.0582675,1.0582675 0 0 0 0,-1.497448 z"
       id="path2"
       style="fill:#ffffff;stroke-width:1.05827" />
  </g>
</svg>
