<svg xmlns="http://www.w3.org/2000/svg" viewBox="0 0 1100 294.209">
  <path d="M286.96 292.656c0-.855-.266-1.39-.59-1.19-.323.2-.993-.603-1.487-1.786-.52-1.247-1.325-2.15-1.914-2.15-.803 0-.868-.179-.31-.852.544-.654.526-.913-.077-1.116-.617-.207-.59-.5.126-1.372.695-.845.73-1.17.152-1.364-.417-.14-.759-.522-.759-.848 0-.326.27-.426.6-.221.345.212.447-.031.24-.572-.2-.518-.05-.942.331-.942.506 0 .517-.33.044-1.215-.522-.976-.462-1.215.306-1.215.773 0 .81-.156.196-.814-.787-.841-2.314-.089-2.114 1.042.051.292-.227.65-.618.794-.468.173-.591-.198-.36-1.082.194-.74.104-1.199-.2-1.021-.302.177-1.097.121-1.765-.125-.963-.354-.68-.538 1.366-.888 1.61-.275 2.581-.764 2.581-1.299 0-.472.531-.858 1.18-.858.65 0 1.554-.533 2.011-1.186.82-1.17 3.913-2.765 4.915-2.535.284.064 2.06-.272 3.948-.749 1.888-.476 5.14-1.058 7.229-1.294 2.088-.235 3.949-.674 4.135-.975.186-.302.937-.554 1.669-.562.732-.008 2.97-.82 4.974-1.808 2.004-.987 4.106-1.8 4.67-1.808.566-.008 1.197-.287 1.403-.621.206-.334.067-.607-.31-.607-.842 0-.538-2.716.31-2.775.334-.024 1.805-.386 3.27-.805 1.464-.42 3.33-.595 4.144-.39.815.204 2.35.104 3.41-.223 1.061-.327 3.454-.893 5.318-1.258 5.115-1 7.846-1.837 7.846-2.402 0-.585-31.153-.177-38.867.51-4.063.361-5.614.263-7.287-.465-1.17-.508-2.262-.964-2.43-1.012-.166-.048-1.101-.418-2.078-.82-.976-.404-2.205-.566-2.732-.36-.527.204-8.61.47-17.963.59-9.352.12-18.233.49-19.736.823-1.504.333-6.008.922-10.01 1.31s-7.8.985-8.439 1.327c-.639.342-2.497.493-4.128.337-1.631-.157-3.113-.047-3.293.244-.18.292-.582.373-.893.18-.311-.191-.566-.06-.566.295 0 .353-.204.588-.455.522-1.01-.267-6.225.838-6.225 1.32 0 .592-4.587 1.577-6.322 1.357-.638-.081-1.673.404-2.3 1.077-.628.674-1.61 1.257-2.18 1.297-.572.04-2.68.13-4.684.202-2.004.072-4.736.447-6.073.832-1.336.386-3.461.855-4.723 1.043-1.262.188-2.146.581-1.965.874.565.915-.784 1.155-11.335 2.013-.56.045-.97.341-.911.658.06.316-.438.736-1.106.932-.668.197-1.905.827-2.748 1.4-1.103.751-3.403 1.153-8.198 1.434-3.666.215-7.297.362-8.07.328-.771-.035-2.242.37-3.268.9-1.06.548-2.027.724-2.24.408-.523-.777-2.66-1.523-2.193-.765.494.799-.097.758-1.714-.119-3.263-1.769-18.713-.424-20.325 1.77-.5.678-.554 1.136-.152 1.27.346.115.628.451.628.747s-.382.391-.85.212c-.466-.18-1.03-.034-1.25.322-.588.953 3.051.815 5.015-.19.902-.461 2.87-1.04 4.373-1.286 1.503-.246 3.21-.536 3.795-.644.585-.109 1.063.16 1.063.598 0 .563.755.736 2.581.593 1.995-.156 2.337-.06 1.506.422-.592.343-.94.845-.772 1.115.36.583-3.035 1.17-9.608 1.66-3.691.275-4.896.166-5.305-.48-.384-.606-.532-.627-.538-.076-.014 1.118-3.664.937-4.972-.246-.61-.553-1.11-.747-1.11-.43 0 .348-1.972.41-5.01.156-2.756-.23-7.06-.568-9.566-.752-2.505-.184-5.452-.652-6.549-1.04-1.097-.389-2.675-.576-3.506-.417-.832.159-1.684.01-1.895-.331-.235-.38-.077-.43.412-.128.494.305.648.252.405-.14-.457-.74-3.354-1.41-6.782-1.57-2.022-.093-2.44-.33-2.495-1.417-.059-1.166.36-1.354 3.948-1.77 2.207-.256 4.696-.406 5.531-.334l1.518.132-1.61-.876c-2.795-1.52-5.52-2.16-10.839-2.55-2.84-.208-6.938-.824-9.11-1.37-4.993-1.254-22.32-1.35-23.075-.128-.26.421-.794.567-1.187.324-1.015-.627-12.19-.838-11.81-.223.355.575.265.585-7.68.826-5.607.17-7.973.378-16.369 1.435-3.828.482-6.067.206-8.254-1.019-.917-.512-.72-.804 1.487-2.197 1.78-1.124 3.955-1.784 7.237-2.2 5.601-.707 10.945-1.6 14.796-2.469 2.303-.52 2.762-.841 2.52-1.764-.172-.663-.646-.994-1.145-.802-.469.18-.851.024-.851-.346s.478-.676 1.062-.681c.908-.008.93-.095.152-.598-.576-.373-.639-.592-.17-.598.407-.005.582-.42.388-.924-.244-.636.362-1.23 1.993-1.956l2.344-1.041-5.934-.366c-3.263-.202-7.567-.339-9.565-.305-1.997.034-3.63.028-3.63-.014s.546-.706 1.214-1.476c.668-.77 1.214-1.216 1.214-.99 0 .226.616.008 1.368-.486.752-.493 3.393-1.21 5.87-1.594 2.476-.385 5.584-1.08 6.907-1.547 1.322-.467 3.395-.859 4.606-.87 3.382-.034 11.901-2.25 9.438-2.455-.307-.025-1.104-.172-1.772-.326-.668-.153-1.548-.352-1.956-.442-1.39-.304-1.478-.895-.195-1.302.704-.224 1.994-1.069 2.867-1.878.873-.809 2.197-1.47 2.942-1.47.746 0 1.667-.376 2.048-.836.57-.686.07-.906-2.81-1.233-1.926-.22-4.323-.532-5.325-.694-2.384-.384-11.87-.329-12.521.074-.88.543-7.823.8-7.823.289 0-.269.41-.829.911-1.245.501-.415.91-1.04.91-1.39 0-.348-.179-.454-.399-.234-.22.22-.766.095-1.214-.277-.452-.375-.815-.417-.815-.096 0 .32-.41.58-.911.58-1.459 0-1.059-.65.946-1.537 2.253-.998 1.93-1.416-1.703-2.207-3.315-.722-3.946-1.854-1.57-2.811 2.46-.992 14.015-2.278 20.62-2.297 3.096-.009 6.355-.197 7.24-.42l1.612-.404-1.73-1.415c-.952-.778-2.193-1.425-2.758-1.437-1.44-.03-1.877-.997-1.105-2.44.816-1.523 6.098-4.262 8.22-4.262.896 0 1.413-.262 1.2-.608-.207-.334-.877-.607-1.49-.607-1.028 0-2.172-1.516-1.947-2.58.23-1.083-9.406.127-10.212 1.282-.616.882-16.124 3.188-17.648 2.624l-1.452-.537 1.412-.756c.777-.416 5.822-1.491 11.212-2.39 9.864-1.644 12.264-2.805 5.801-2.805-1.986 0-3.813-.347-4.407-.837-.843-.695-2.011-.715-6.931-.114-9.047 1.105-14.305 1.864-15.538 2.243-.817.251-1.063.071-.911-.667.22-1.077 2.1-2.34 5.045-3.391 2.536-.906.96-1.704-2.282-1.156-1.405.237-3.785.624-5.288.859L6.695 202l2.277-2.183c1.253-1.2 2.278-2.28 2.278-2.399 0-.12-1.695-.409-3.766-.643-4.897-.554-7.518-1.927-7.484-3.92.018-1.052 3.947-2.463 7.602-2.73 1.505-.11 4.923-.635 7.595-1.166 2.672-.53 6.772-1.087 9.11-1.238 2.339-.15 5.891-.56 7.895-.913 12.444-2.185 15.244-2.723 15.78-3.03.33-.19-.626-.642-2.125-1.007-1.508-.367-2.725-1.02-2.725-1.461 0-1.022 6.121-3.242 11.676-4.235 2.703-.483 4.702-1.201 5.357-1.924.586-.648 2.618-1.464 4.63-1.86 4.563-.898 4.44-1.75-.518-3.582-1.064-.392-1.81-1.03-1.66-1.416.343-.88 3.158-2.22 4.66-2.22.621 0 .96-.274.754-.608-.206-.334-2.409-.607-4.894-.607-4.095 0-5.74-.621-3.76-1.42 1.77-.714-7.094-.327-11.471.5-5.451 1.03-8.417.6-8.417-1.224 0-.84 1.586-1.944 5.96-4.147 4.122-2.075 5.715-3.16 5.163-3.517-1.05-.678-.014-1.37 4.059-2.716 5.749-1.899 10.31-5.082 9.711-6.777-.409-1.158 1.832-1.79 11.09-3.126 4.601-.664 9.21-1.629 10.24-2.143 1.031-.514 3.213-1.095 4.85-1.291 4.512-.541 13.147-2.725 14.497-3.668.66-.46 2.026-.855 3.037-.878 1.01-.024 2.385-.278 3.053-.565.967-.416.72-.54-1.215-.611-5.176-.191-7.923-.701-8.609-1.6-.468-.613-1.2-.802-2.126-.548-1.214.334-1.26.294-.337-.285.59-.37 1.547-.595 2.126-.5.578.096 1.42-.057 1.869-.338.483-.303 1.428-.185 2.314.29 1.168.624 1.752.643 2.647.083.727-.454 1.284-.499 1.517-.122.202.327 1.923.604 3.823.616 1.901.012 4.14.412 4.975.89 1.819 1.04 2.429 1.116 2.429.303 0-.334-.426-.607-.947-.607-.52 0-.797-.242-.614-.538.183-.296-.24-.688-.94-.871-.699-.183-1.152-.692-1.007-1.132.268-.811 2.988-1.286 11.403-1.992 7.602-.638 9.716-.981 9.716-1.577 0-.314-.41-.57-.91-.57-.507 0-.912-.54-.912-1.215 0-.89.405-1.214 1.519-1.214 1.747 0 2.044-.936.432-1.357-.597-.157-3.672-.138-6.832.04-9.205.52-12.886.347-14.812-.695-.978-.53-1.953-.854-2.167-.722-.214.132-.277-.53-.139-1.47.301-2.051-.553-2.371-6.788-2.543-3.732-.102-4.022-.194-2.725-.867 2.134-1.105 9.96-2.692 14.628-2.966 2.385-.14 4.638-.638 5.449-1.206 1.725-1.208 2.765-1.223 3.931-.057.525.525 1.987.906 3.449.898 4.5-.023 21.294-1.73 23.574-2.397 2.13-.623 2.194-.723 1.745-2.715-.283-1.255-.22-2.315.162-2.697.433-.433.414-.886-.06-1.458-1.451-1.748.394-2.11 9.257-1.815 6.886.229 9.034.103 10.432-.61 1.478-.753 8.143-1.793 12.69-1.98.669-.027 2.582-.293 4.252-.592l3.036-.543-2.733-.442c-1.503-.243-6.012-.302-10.02-.132-4.008.17-9.747.274-12.753.23-3.006-.045-8.882.364-13.057.908-8.261 1.076-16.78 1.83-20.448 1.807-1.279-.008-2.497.225-2.707.516-.21.292-1.234.565-2.277.608-1.043.043-1.896.304-1.896.58 0 .277-.615.33-1.366.119-1.07-.301-1.169-.246-.456.253.785.55.764.64-.152.647-.584.006-1.062.314-1.062.687 0 .416-.578.299-1.497-.304-1.663-1.09-2.392-1.26-1.886-.442.183.296-.211.68-.875.854-.691.18-1.208.015-1.208-.387 0-.406-.96-.702-2.278-.702-1.447 0-2.225.266-2.135.73.098.503-.556.64-2.099.443-2.528-.323-5.022-1.738-5.036-2.857-.007-.478-.22-.419-.598.166-.457.707-.59.528-.598-.8-.012-2.19.989-4.058 2.174-4.058.509 0 .756-.274.55-.608-.207-.334.119-.628.723-.654 2.001-.084 3.272-.452 4.625-1.339 1.214-.795 4.065-.489 4.065.436 0 .168-.366.164-.814-.008-.447-.172-1.199.162-1.67.743-.738.909-.737.983.007.535.663-.4.764-.263.435.594-.256.666-.114 1.312.352 1.608 1.162.738 2.14.599 1.083-.153-.685-.488-.333-.568 1.422-.324 1.29.18 2.829.015 3.443-.368.84-.525 1.326-.514 2 .044.716.596.98.53 1.36-.34.258-.593.427-1.283.374-1.534-.053-.25.29-.455.764-.455.473 0 .964-.313 1.092-.695.127-.382 1.033-.78 2.013-.884.98-.105 2.087-.608 2.46-1.118.373-.51.9-.727 1.17-.482.271.245.321-.032.111-.617-.469-1.308.693-1.43 1.193-.125.319.83.491.818 1.5-.094 1.076-.975 1.14-.968 1.148.125.008.97.105 1.01.598.246.878-1.358.753-1.654-.873-2.062-1.03-.258-1.45-.76-1.384-1.65.107-1.418 2.223-2.478 4.66-2.335 2.272.133 4.278-.648 4.278-1.667 0-.656.603-.848 2.277-.726 2.447.179 6.565-.505 8.046-1.336.736-.412.678-.52-.303-.558-.668-.026-2.581-.175-4.251-.332-5.164-.484-12.033-.469-14.511.032-1.701.344-2.247.286-1.942-.206.261-.423.097-.56-.43-.357-.5.192-1.306-.364-1.946-1.342-.783-1.195-.886-1.74-.362-1.914.492-.164.373-.526-.362-1.103-.998-.783-.934-.831.727-.543 1.002.175 1.48.156 1.063-.04-1.538-.726-.691-1.472 1.67-1.472 1.533 0 2.432.28 2.438.759.007.559.147.541.531-.065.328-.517.664-.594.904-.206.408.66 1.181.609 3.08-.204.65-.279 2.08-.525 3.179-.547 2.517-.051 3.334-1.559.845-1.559-.985 0-1.89-.395-2.088-.91-.236-.616.03-.912.816-.912.64 0 1.384-.341 1.651-.759.696-1.089 3.171-2.378 3.808-1.984.298.183.713.056.923-.283.21-.34 1.135-.618 2.057-.618.921 0 3.16-.443 4.974-.986 2.864-.856 3.12-1.053 1.951-1.491-.741-.278-5.812-.469-11.268-.423-5.457.045-10.278-.139-10.715-.408-.452-.28-.972-.201-1.209.181-.488.79-19.366 1.389-19.835.63-.165-.268-.724-.323-1.243-.124-.638.245-.722.497-.26.783.375.232-.148.421-1.164.421-1.015 0-1.845-.26-1.845-.58 0-.32-.417-.235-.926.188-.509.422-1.12.574-1.357.336-.238-.237.247-.948 1.077-1.58l1.51-1.15-1.519.293c-1.33.256-1.368.22-.304-.285 1.752-.833 4.63-.746 6.318.189 1.644.91 3.703.61 3.703-.54 0-.53 1.199-.77 3.947-.785 2.477-.014 3.948.227 3.948.645 0 .367.341.22.759-.328.548-.718 2.192-1.103 5.92-1.384 2.84-.215 6.888-.776 8.996-1.247 2.108-.471 4.704-.883 5.77-.915 1.064-.032 3.302-.431 4.972-.887 2.847-.778 2.526-.809-5.162-.498-4.51.182-8.609.335-9.11.34-.5.006-6.786.652-13.967 1.434-7.182.783-15.01 1.507-17.398 1.61-2.388.101-4.217.39-4.064.64.153.25-.9.457-2.339.458-1.439 0-5.076.399-8.082.882-5.155.83-17.28 1.686-15.634 1.104.42-.149.608-.52.42-.825-.19-.306.424-.569 1.362-.585.938-.016 2.663-.548 3.832-1.182 1.169-.633 2.672-1.407 3.34-1.718 2.195-1.024 38.013-6.95 46.457-7.686 2.506-.218 9.747-.938 16.094-1.6 6.346-.662 14.722-1.468 18.613-1.792 3.892-.324 8.39-.985 9.998-1.469 2.11-.635 3.038-.691 3.34-.202.384.62 6.773.45 14.506-.386 1.17-.126 4.859-.4 8.199-.609 5.993-.374 15.124-1.634 20.235-2.792 1.443-.326 2.88-.436 3.193-.243.312.194 4.544-.25 9.402-.986 7.19-1.09 9.093-1.2 10.224-.595 1.137.609 2.593.507 8.014-.562 9.023-1.778 20.797-4.09 26.665-5.235a339.403 339.403 0 0 0 8.627-1.81c2.072-.473 4.669-.86 5.769-.858 1.1 0 3.23-.39 4.734-.872 2.533-.81 7.719-1.71 21.558-3.74 7.11-1.043 8.542-1.284 15.79-2.654 3.34-.632 8.806-1.6 12.146-2.15l7.894-1.304c7.091-1.172 8.442-1.15 9.852.159.76.706 1.383 1.595 1.383 1.974s.205.657.456.617c.25-.039 1.08-.039 1.843 0 1.16.06 1.288.258.78 1.207-.743 1.39-.148 2.138.965 1.215 1.252-1.04.967-.105-.474 1.552-.756.87-2.273 1.648-3.67 1.884-2.04.345-2.272.535-1.619 1.322.98 1.18.152 1.254 39.068-3.455 2.672-.323 7.454-.719 10.627-.879 3.173-.16 8.912-.579 12.753-.93 3.841-.352 8.897-.748 11.235-.88 2.338-.133 5.332-.524 6.653-.87 1.32-.346 6.56-.646 11.644-.667 5.084-.02 9.605-.159 10.048-.308 1.093-.367 15.323-1.112 18.71-.98 1.497.06 3.14.485 3.65.947 1.145 1.036 4.06 1.14 17.615.628 6.231-.235 11.954-.77 13.833-1.294 2.451-.683 6.518-.87 17.307-.795 7.757.053 20.662-.11 28.678-.362 16.245-.51 15.377-.516 32.187.214 10.883.472 17.162.492 26.72.083 1.67-.071 2.559-.255 1.974-.408-.584-.152-1.063-.563-1.063-.912 0-.419 1.705-.514 5.01-.281 2.756.194 11.023.63 18.371.97 7.348.338 16.776.895 20.952 1.238 16.773 1.376 23.17 1.861 31.882 2.417 21.788 1.391 33.273 1.946 45.243 2.184 5.512.11 12.344.385 15.183.613 2.839.227 7.075.39 9.413.36 2.338-.03 6.984.213 10.324.542 3.34.329 14.157.718 24.038.865 9.881.147 19.173.534 20.648.86 1.475.325 4.83.74 7.453.92 2.625.18 5.63.47 6.68.641 3.591.588 9.197.987 17.396 1.24 7.219.222 14.233.756 24.595 1.87 1.67.18 3.993.404 5.162.497 1.169.093 4.175.345 6.68.56 2.505.214 6.74.556 9.412.76 2.672.205 4.995.456 5.162.56.168.102 1.859.351 3.758.554 1.9.201 3.854.52 4.343.708.49.188 3.308.423 6.263.522 8.117.273 8.107.272 8.107 1.253 0 .501.289.911.643.911.354 0 .445-.32.204-.71-.3-.485-.102-.581.62-.304.584.224 1.664.407 2.4.407.904 0 1.37.395 1.431 1.215.11 1.451-.22 1.521-1.438.303-1.27-1.27-2.693-1.176-2.266.152.21.654.145.802-.17.384-.35-.462-2.06-.55-5.372-.272-5.7.476-10.001.345-17.915-.546a806.01 806.01 0 0 0-9.11-.977c-1.836-.18-3.658-.43-4.048-.558-.39-.127-.868.183-1.062.69-.262.681-.839.814-2.224.51-2.175-.478-3.573-.66-9.366-1.217-2.338-.225-4.414-.51-4.614-.633-.426-.262-8.548-.305-19.677-.104-7.061.127-12.04-.22-15.754-1.1-2.094-.496-16.736-.71-16.736-.245 0 .24 1.844.632 4.099.873 2.254.242 4.646.547 5.314.679 4.686.924 17.235 1.96 27.328 2.255 2.338.069 4.54.31 4.893.536.587.376 19.183 1.826 20.181 1.574.238-.06 2.482.082 4.987.315 3.872.362 13.763 1.089 16.245 1.194.897.039 1.003.823.18 1.331-.592.366-5.17.45-9.312.172-1.265-.085-2.522-.514-2.794-.954-.367-.594-1.41-.694-4.076-.388-1.971.227-3.766.52-3.99.653-.224.133-.821-.172-1.328-.68-.506-.506-1.065-.686-1.242-.4-.343.555-12.6.318-16.153-.312-1.17-.207-3.23-.433-4.58-.502-1.349-.069-3.057-.448-3.795-.843-1.073-.575-1.342-.556-1.342.092 0 .478-.812.877-1.973.97-4.802.388-11.524.351-16.853-.092-3.833-.318-5.47-.278-4.876.12 2.394 1.602-2.097 2.393-9.091 1.6-6.201-.704-7.31-.74-9.99-.334-1.382.21-3.321.165-4.308-.1-2.601-.696-16.12-1.93-22.14-2.02-2.839-.043-6.938-.265-9.11-.493-2.17-.228-6.543-.555-9.716-.727-3.173-.171-10.688-.713-16.7-1.204-6.012-.491-14.955-1.077-19.873-1.301-8.013-.366-8.98-.303-9.329.603-.33.862-1.386 1.007-7.152.985-3.72-.014-7.994.196-9.497.467l-2.733.493 4.555.677c2.505.372 5.511.67 6.68.66 1.17-.01 5.952.407 10.628.924 4.676.517 13.558 1.246 19.737 1.619 6.18.373 11.843.808 12.586.968.743.16 6.891.557 13.664.882 12.171.585 20.7 1.061 27.191 1.52 1.837.13 8.14.514 14.005.852 5.865.338 11.058.737 11.538.886.481.148 1.421.477 2.09.73.667.252 2.264.534 3.548.627 1.284.093 2.652.602 3.04 1.132.558.764 2.14.995 7.685 1.12 3.84.086 7.255.325 7.589.53.334.205 2.656.534 5.162.73 11.975.937 23.946 1.698 29.453 1.872 3.34.106 10.445.67 15.79 1.253 5.344.583 12.176 1.151 15.182 1.262 20.806.767 37.422 1.734 46.154 2.684 3.006.327 8.275.77 11.709.985 3.434.215 6.388.625 6.564.91.177.286-.583.542-1.689.569a95.094 95.094 0 0 0-3.724.173c-.943.069-1.833-.067-1.978-.302-.145-.235-1.274-.149-2.508.192-1.252.346-4 .443-6.22.219-2.187-.22-13.814-.508-25.838-.639-12.025-.13-26.372-.414-31.883-.63-9.823-.384-12.607-.149-6.163.52 1.788.187 3.382.47 3.544.632.433.434-1.788 1.505-3.63 1.752-2.146.287-2.823 1.057-.988 1.122.807.03 5.02.308 9.362.62 4.343.31 12.883.727 18.978.924 10.02.324 11.083.46 11.083 1.423 0 1.336 2.445 1.652 17.179 2.22 5.941.229 10.945.647 11.119.928.174.282 1.514.513 2.978.513 4.989 0 3.59 1.677-2.538 3.043-1.73.386-4.053.65-5.162.59-7.397-.41-5.456.785 2.841 1.75 3.34.39 7.986.84 10.324 1.001 2.338.162 6.574.567 9.413.9 2.84.333 8.578.785 12.753 1.006 5.142.27 7.787.657 8.199 1.196.336.44 2.503.972 4.858 1.191 2.338.217 4.524.73 4.858 1.137.334.408 2.604.926 5.043 1.151 2.44.225 5.048.811 5.797 1.302.857.562 3.484.99 7.103 1.159 7.802.363 13.916 1.047 14.255 1.596.356.576-4.962 1.399-5.779.894-.335-.207-.609-.117-.609.2 0 .316.957.754 2.126.973 2.308.433 2.744 1.189 1.063 1.84-1.985.77.792 1.989 7.035 3.088 5.244.923 8.558 2.064 6.143 2.115-2.27.047 1.234 1.118 4.883 1.491 2.166.222 4.256.667 4.644.989.388.322 2.434.864 4.546 1.204 5.87.946 5.806 1.705-.181 2.176-2.237.175-4.283.696-4.898 1.247-.863.772-1.918.865-5.769.505-7.83-.731-9.381-.589-10.556.97-.576.762-.928 1.577-.784 1.81.145.234 2.105.617 4.356.85 2.25.234 4.366.64 4.7.902.334.262 1.905.67 3.492.906 4.354.648 3.46 1.506-1.569 1.506-2.45 0-4.66.205-4.913.456-.253.25-2.8.455-5.66.455-3.617 0-5.28.231-5.462.76-.179.52.472.76 2.067.762 1.28 0 3.285.254 4.454.56 1.169.307 4.439.73 7.266.942 2.827.21 5.448.64 5.825.952.377.313.844.41 1.038.215.195-.195.99-.127 1.767.15 1.09.39.443.593-2.84.892-3.873.352-8.29 1.238-10.627 2.132-1.483.567.823 1.19 7.743 2.092 3.424.446 6.225.974 6.225 1.172 0 .198 1.776.247 3.947.109 3.172-.202 3.947-.077 3.947.636 0 1.1-1.922 2.9-3.084 2.888-.714-.008-.705-.11.047-.598.776-.5.75-.59-.17-.598-.596-.005-1.245.415-1.444.933-.308.803-1.406.896-7.42.625-7.537-.339-9.389.063-8 1.736 2.325 2.802 11.808 5.806 18.326 5.806 3.939 0 5.996.737 5.996 2.147 0 .706-.972.887-4.707.875-2.588-.008-5.8-.302-7.135-.654-1.337-.352-7.631-.763-13.99-.915-11.242-.267-11.562-.241-11.65.946-.089 1.168.652 2.01 1.955 2.22.334.054 2.954.54 5.822 1.08 9.387 1.77 17.721 2.847 26.251 3.394 7.903.508 10.598 1.203 9.782 2.525-.187.301-.6.386-.92.19-.319-.198-.505.002-.413.445.092.445-.305.767-.89.72-.58-.045-.924.13-.764.39.16.26-.636.646-1.77.859-2.45.46-3.032 1.554-1.776 3.346.669.955.74 1.524.263 2.1-.783.942-.272 1.587 1.258 1.587.612 0 1.113.115 1.113.254 0 .14.181.727.403 1.305.37.965-.037 1.018-5.01.648-2.977-.222-6.438-.565-7.69-.764-1.813-.287-2.278-.168-2.278.586 0 .521-.44 1.194-.979 1.495-1.39.778-.555 4.277 1.188 4.98 1.247.504 1.251.533.094.61-1.215.081-1.215.081 0 .603 1.185.51-.47.727-6.68.878-2.59.064-4.555.881-4.555 1.896 0 .542-.63.873-1.67.878-.919.005-2.291.175-3.05.378-1.295.347-1.314.42-.304 1.187.592.45 1.824.826 2.738.837.914.01 3.464.975 5.668 2.144 2.223 1.18 4.89 2.126 5.993 2.126 3.68 0 9.42.773 9.137 1.23-.154.25.185.417.753.371.568-.045 1.13.388 1.25.964.276 1.336-3.31 3.64-5.16 3.314-.74-.13-1.444.061-1.566.426-.286.859-7.373 1.102-10.208.35-1.204-.32-7.421-.655-13.816-.746-10.812-.153-14 .157-9.957.968.918.185 2.9.614 4.402.954 1.504.34 3.895.63 5.314.645 1.42.014 2.581.3 2.581.633 0 .334.428.608.951.608.523 0 1.512.3 2.198.667 1.233.66 1.23.675-.192 1.384-2.491 1.242-1.72 2.414 2.467 3.745 2.149.683 4.034 1.64 4.19 2.126.157.486.527 1.042.822 1.235.929.61-.183 2.484-1.234 2.08-.532-.204-.799-.203-.594.002.205.205-.316 1.062-1.158 1.904-1.107 1.107-2.25 1.558-4.13 1.63-1.43.056-2.488.28-2.353.499.135.218-2.37.263-5.567.1-4.647-.239-6.016-.114-6.83.622-1.131 1.022-7.096 1.444-10.207.721-1.188-.276-2.054-.19-2.313.228-.227.367-1.058.668-1.846.668-1.827 0-3.354.583-3.354 1.28 0 .298.397.542.881.542.485 0 1.113.414 1.396.92.32.572 2.694 1.345 6.255 2.038 7.017 1.365 12.182 3.452 11.693 4.725-.187.489-.73.74-1.205.557-.475-.182-.711-.084-.525.217.187.302-.377 1.4-1.253 2.441-1.171 1.393-1.914 1.79-2.812 1.505-.677-.215-1.069-.14-.88.166.189.304-.608.58-1.77.613-1.161.032-4.03.53-6.375 1.104l-4.262 1.045 1.356 1.444c.746.794 1.61 1.444 1.918 1.444.31 0 1.5.445 2.646.989 1.999.948 2.046 1.046 1.161 2.397-.581.888-.697 1.548-.312 1.786.336.207.435.66.22 1.007-.25.407-.577.338-.92-.194-.345-.534-.691-.606-.987-.204-.25.341-1.275 1.015-2.277 1.498l-1.822.88 1.922.205c2.081.224 3.194 1.782 1.685 2.361-.51.196-1.078.205-1.262.02-.185-.184-1.246.175-2.357.8-1.112.624-3.06 1.33-4.33 1.568s-2.676.801-3.125 1.251c-1.066 1.065-1.483 1.042-7.126-.401-5.064-1.296-6.491-1.175-8.57.724-1.171 1.072-1.644 1.124-4.817.538-4.162-.77-12.004-.868-11.557-.145.172.277 2.306.845 4.742 1.26 6.208 1.059 6.907 1.286 5.887 1.916-1.767 1.092 6.146 3.67 13.879 4.522 2.088.23 3.929.632 4.09.894.162.262-.278 1.205-.979 2.095-1.176 1.496-1.199 1.702-.295 2.7.538.595.978 1.231.978 1.414 0 .75-10.283-.33-13.664-1.435-4.861-1.59-14.704-2.75-15.614-1.84-.48.48-.485.893-.015 1.46.635.765 1.61 1.093 9.708 3.263 2.526.677 3.795 1.323 3.795 1.932 0 .769-.716.85-4.505.506-2.887-.262-4.646-.183-4.895.22-.213.345-.053.628.356.628.41 0 .603.141.43.314-.407.407-9.007-1.398-9.863-2.07-.672-.528-9.54-1.894-11.432-1.76-.584.04-1.062.417-1.062.835s-.142 1.128-.314 1.578c-.299.778 7.118 2.35 19.898 4.22 1.92.28 4.48.923 5.691 1.429 1.21.506 3.056.921 4.1.923 2.751.005 6.701 1.208 6.063 1.846-.296.295-3.994.615-8.218.71-4.225.095-7.636.22-7.58.276.055.057 1.45.634 3.101 1.282 2.874 1.13 2.943 1.21 1.63 1.913-1.029.55-2.128.572-4.4.084-3.695-.792-4.182-.803-4.182-.09 0 .308.817.739 1.815.958 3.32.729 2.6 1.52-1.382 1.52-2.318 0-4.662.385-5.8.953-1.153.575-2.445.784-3.256.526-1.732-.55-30.245-.76-29.912-.22.707 1.143-7.26 1.138-14.058-.01-13.766-2.324-25.479-3.645-33.035-3.726-4.175-.045-10.46-.457-13.967-.916-3.507-.459-9.755-1.116-13.885-1.46-4.129-.345-7.682-.732-7.894-.86-.213-.129-2.437-.408-4.942-.621-2.505-.214-5.511-.504-6.68-.645-2.434-.294-13.514-.912-21.56-1.202-5.819-.21-14.662-.769-20.647-1.304-2.004-.18-9.793-.443-17.308-.586-7.515-.142-16.397-.483-19.737-.756-3.34-.274-12.577-.47-20.528-.438-12.023.05-14.552.211-15.03.956-.488.76-.658.767-1.121.048-.364-.565-1.145-.728-2.34-.489-.99.198-2.094.06-2.46-.306-.366-.365-1.567-.722-2.67-.792-1.103-.07-2.551-.29-3.22-.488-3.639-1.078-7.43-1.391-8.958-.74-1.226.522-4.287-.095-3.864-.78.155-.252-2.771-.531-6.504-.621-10.052-.242-11.094-.352-12.231-1.296-.925-.768-1.017-.733-.834.319.139.8-.088 1.112-.706.966-.5-.119-1.525-.221-2.277-.228-.751-.007-1.366-.222-1.366-.478 0-.257-.44-.636-.979-.842-.71-.273-.879-.116-.614.574.25.654.13.8-.388.471-.414-.263-3.348-.564-6.521-.669-6.674-.22-5.682-.217-37.045-.107-13.193.047-25.678-.112-27.743-.354-2.065-.24-4.214-.262-4.776-.047-1.033.397-20.872 1.18-26.967 1.065-4.767-.09-10.173 2.712-7.166 3.714.448.15.138.58-.759 1.053-.834.44-1.668 1.03-1.854 1.312-.67 1.02-5.827 1.588-7.29.804-.924-.494-3.369-.67-7.214-.523-3.2.123-13.708.368-23.353.544-9.645.177-18.2.487-19.01.69-.812.205-4.26.413-7.662.464-3.403.051-6.733.4-7.401.776-1.195.671-6.827 1.774-7.77 1.52-1.162-.311-3.32-.233-5.287.193-1.169.253-2.672.414-3.34.358-.668-.056-1.761-.15-2.429-.209-.668-.059-3.81.214-6.984.606-3.173.393-6.95.708-8.395.7-1.444-.006-2.947.247-3.34.563-.393.316-1.602.764-2.688.997-1.615.345-1.974.235-1.974-.606 0-.91-.502-.979-4.403-.598-2.421.236-8.775.493-14.119.57-5.344.077-11.189.46-12.988.853-1.799.392-3.404.713-3.566.713-.162 0 .045.41.46.911.417.501 1.68.911 2.808.911s2.051.115 2.051.254c0 .14.166.686.369 1.215.505 1.317-1.205 1.252-2.554-.097-.765-.765-1.127-.848-1.31-.3-.139.417-.502.603-.808.414-.305-.188-.555-.122-.555.149 0 .27-.615.524-1.367.565-.751.041-4.919.384-9.26.762-4.343.378-13.088.797-19.434.93-6.346.134-12.222.394-13.057.577-2.829.62-18.385 2.06-26.72 2.472-15.447.763-27.157 2.973-29.571 5.578-.756.815-2.087 1.473-3.042 1.504-7.86.256-18.772 1.074-23.562 1.767-2.004.29-5.52.695-7.812.9-2.293.205-5.542.633-7.219.95-1.677.319-3.149.579-3.27.579-.122 0-.221-.7-.221-1.554zm0-5.525c0-.665-.27-.714-1.192-.22-.713.38-1.05 1.007-.84 1.555.27.707.544.757 1.191.22.462-.384.84-1.083.84-1.555zm102.328-9.033c2.376-.852 2.316-.864-2.733-.568-11.561.678-15.182 1.021-15.182 1.44 0 .792 15.36.045 17.915-.872zm-282.086-7.333c0-.132-.41-.239-.911-.239-.501 0-.911.265-.911.588 0 .324.41.431.91.239.502-.192.912-.457.912-.588zm44.028-2.06c.212-.344-.285-.608-1.143-.608-.835 0-1.687.273-1.893.607-.212.343.285.607 1.143.607.835 0 1.687-.273 1.893-.607zm-28.846-3.108c0-.627-.727-.686-2.076-.168-1.524.585-1.115 1.314.558.995.835-.16 1.518-.532 1.518-.827zm343.626-.099c2.073-.577 2.357-.799 1.336-1.04-1.62-.385-20.942.427-31.297 1.314-2.814.24 18.917.83 23.38.633 2.172-.095 5.133-.504 6.581-.907zm21.052-1.869c.668-.158-.562-.265-2.733-.238-5.182.065-7.233.623-3.948 1.074 1.336.183 3.113.135 3.948-.108.835-.242 2.065-.57 2.733-.728zm-387.554.178c1.25-.036 1.243-.068-.162-.629-1.655-.661-3.076-.332-3.076.714 0 .38.432.526.961.323.528-.203 1.553-.386 2.277-.408zm396.677-.683c.162-.163-.919-.341-2.403-.398-1.483-.056-2.886.204-3.117.577-.295.478.42.596 2.402.398 1.552-.155 2.955-.415 3.118-.577zm474.887-7.173c.232-.376-.737-.58-2.545-.535-2.593.064-2.716.124-1.099.535 2.657.676 3.226.676 3.644 0zm-936.024-8.917c-.438-.175-.962-.154-1.164.048-.202.202.157.346.797.32.708-.03.851-.174.367-.368zm7.174-.8c1.22-.39 1.28-.49.303-.503-.668-.01-1.76.217-2.429.504-1.547.665.05.665 2.126 0zm8.148.24c.529-.203.96-.86.96-1.461 0-.93-.381-1.044-2.58-.77-2.79.35-4.612 1.384-2.435 1.384.715 0 1.47.274 1.676.608.432.699 1.025.758 2.38.238zm986.593-10.563c0-.334-.479-.603-1.063-.598-.908.008-.93.094-.152.598 1.146.74 1.215.74 1.215 0zm-971.55-24.707c-.439-.175-.963-.154-1.165.048-.201.202.157.345.798.32.707-.03.85-.174.366-.368zm-4.973-1.772c0-.99-1.689-1.1-3.908-.257-2.415.918-1.842 1.565 1.175 1.325 1.834-.146 2.733-.497 2.733-1.068zm11.28.439c-.606-.982-2.778-1.232-2.778-.32 0 .51.624.853 1.554.853.855 0 1.406-.24 1.224-.533zm-4.6-.681c.678-.438.328-.591-1.366-.598-1.252-.005-2.277.264-2.277.598 0 .773 2.447.773 3.643 0zm1012.353-71.053a.609.609 0 0 0-.607-.607.609.609 0 0 0-.608.607c0 .334.274.607.608.607a.609.609 0 0 0 .607-.607zm4.403-11.333c-.418-.169-1.1-.169-1.518 0-.418.168-.076.306.759.306s1.176-.138.759-.306zm-9.11-7.314c-.751-.145-1.98-.145-2.732 0-.752.145-.137.263 1.366.263 1.503 0 2.118-.118 1.366-.263zm-28.087-4.903c0-.26-2.254-.796-5.01-1.193-2.755-.396-5.668-.91-6.471-1.14-.908-.262-1.321-.194-1.09.18.204.33 2.775.948 5.712 1.373 2.938.425 5.614.859 5.948.965l.76.24c.083.027.151-.165.151-.425zm-885.732-5.6c1.084-.466 1.04-.526-.42-.564-.899-.024-1.803.23-2.01.564-.447.725.743.725 2.43 0zm881.481-3.558c0-.287-2.742-.833-6.094-1.214-7.55-.859-8.906-.876-8.134-.104.324.324 3.59.832 7.257 1.13 3.667.297 6.736.578 6.82.625.083.047.151-.15.151-.437zm-915.552-7.272c.172-.278-.085-.506-.571-.506-.487 0-.885.228-.885.506 0 .279.257.506.572.506.314 0 .712-.227.884-.506zm81.25-1.123c-.439-.176-.963-.154-1.164.048-.202.202.157.345.797.319.707-.03.851-.173.367-.367zm-94.244-.8c0-.334-.478-.603-1.063-.598-.908.008-.93.095-.152.598 1.146.74 1.215.74 1.215 0zm2.429-.947c0-.147-.273-.267-.607-.267-.334 0-.608.289-.608.643 0 .353.274.474.608.268.334-.207.607-.496.607-.644zm34.615-4.228c.836-.233 3.432-.652 5.77-.931 2.338-.279 5.207-.796 6.376-1.149 1.17-.353 2.126-.619 2.126-.591 0 .233 4.16-1.067 6.225-1.945 3.133-1.332 3.33-2.355.455-2.355-1.484 0-2.125-.274-2.125-.91 0-.934 2.718-1.304 7.23-.983 1.965.14 7.573-.906 8.857-1.653.959-.557-2.106-1.186-6.104-1.251-2.6-.043-4.817.384-7.554 1.457-2.131.835-4.437 1.523-5.126 1.528-.996.008-1.071.123-.369.567.485.307 1.1.423 1.366.259.267-.165.485-.041.485.274 0 .544-1.33.928-5.968 1.724-1.111.19-2.168.731-2.348 1.201-.268.699-.502.714-1.282.08-.798-.648-.895-.619-.596.182.262.7.007.93-.949.856-.719-.056-2.213.147-3.322.45-1.397.382-2.281.33-2.884-.171-.49-.406-.87-.46-.87-.123 0 .67-4.627 2.586-6.245 2.586-.573 0-1.042.374-1.042.83 0 .619.814.788 3.188.662 1.754-.093 3.871-.36 4.706-.594zm24.982-22.024c-.438-.146-1.085.023-1.438.376-.45.45-.213.53.797.266.821-.215 1.096-.49.641-.642zm733.523-2.406c0-.25-.83-.514-1.844-.585-1.055-.074-1.688.121-1.481.456.423.685 3.326.798 3.325.129zm-731.784-3.826 1.518-.047-1.416-.567c-1.6-.642-4.353-.148-4.353.78 0 .34.611.45 1.367.247.751-.201 2.05-.387 2.884-.413zm726.926.132c0-.279-.41-.507-.91-.507-.501 0-.911.228-.911.507 0 .278.41.506.91.506.502 0 .911-.228.911-.506zm2.543.09c-.438-.175-.962-.153-1.163.049-.202.201.156.345.797.319.707-.03.85-.174.366-.367zm-719.03-1.214c-.44-.175-.963-.154-1.165.048-.202.202.157.345.797.319.708-.03.852-.173.367-.367zm-68.131-.8a.61.61 0 0 0-.608-.607.61.61 0 0 0-.607.607.61.61 0 0 0 .607.608.61.61 0 0 0 .608-.608zm15.79-1.592c0-.68-1.141-.084-1.468.767-.32.834-.23.871.542.23.51-.422.925-.871.925-.997zm6.072.074c0-.5-.107-.91-.239-.91-.13 0-.395.41-.588.91-.192.501-.085.911.239.911.323 0 .588-.41.588-.91zm795.057-20.759c-.439-.175-.962-.154-1.164.048-.202.202.157.345.797.319.707-.03.851-.173.367-.367zm-559.15-12.296a.66.66 0 0 0-.205-.908c-.304-.188-.71.067-.902.566-.377.984.535 1.266 1.106.342zM89.47 287.075c-.35-.418-.397-.768-.106-.778.291-.01.019-.315-.606-.678-1.602-.931-.183-1.729 2.958-1.663 1.64.035 2.034.18 1.214.446-1.157.377-2.02 1.923-1.062 1.905 1.783-.032 3.07-.826 2.793-1.721-.272-.875-.2-.867.564.06 1.037 1.258 5.659 1.49 6.058.303.203-.603.45-.599 1.2.02 1.182.976 1.88 3.346.875 2.975-.39-.144-.622-.63-.514-1.08.137-.572-.141-.512-.927.2-.898.811-2.2.991-6.468.893-3.394-.078-5.576-.4-5.98-.882zm-8.337-1.339c-.809-.5-.42-1.85.533-1.85.693 0 1.301 1.715.733 2.066-.252.156-.821.059-1.266-.216zm12.85-4.886c-.673-1.076-.602-1.225.612-1.307.755-.051 1.782-.137 2.283-.192 1.62-.176 1.924.379.856 1.56-1.35 1.49-2.797 1.467-3.752-.061zm367.876-4.519c0-.147.273-.437.607-.643.334-.206.608-.086.608.268 0 .353-.274.643-.608.643-.334 0-.607-.12-.607-.268zm7.126-.415c.411-.415.902-.601 1.088-.414.187.187-.15.526-.748.754-.866.33-.936.26-.34-.34zm-325.953-1.672c0-.293.421-.883.936-1.31.729-.605 1.1-.615 1.665-.05.567.567.527.857-.177 1.302-1.145.724-2.424.755-2.424.058zm685.63-5.54c0-.334.394-.607.875-.607.482 0 1.044.273 1.25.607.207.334-.187.607-.874.607-.688 0-1.25-.273-1.25-.607zm-10.324-.645c0-.691 1.632-.762 2.048-.088.164.264-.23.52-.875.57-.645.048-1.173-.169-1.173-.482zm-602.253-.98c-.546-1.424.286-1.633 2.385-.598 1.095.54 1.718 1.022 1.384 1.072-2.56.385-3.484.269-3.769-.474zm525.127-1.411c0-.334.12-.608.268-.608.148 0 .437.274.643.608.207.334.086.607-.267.607-.354 0-.644-.273-.644-.607zm-8.755-.526c-.261-.423-.311-.934-.111-1.134.543-.544 1.136.256.843 1.136-.206.617-.35.617-.732-.003zm2.227.123c-1.243-.501-.86-1.332.456-.988.668.175 1.214.56 1.214.854 0 .58-.473.617-1.67.134zm291.145-3.039c-.699-.698-.442-1.417.506-1.417.501 0 .911.41.911.911 0 .949-.718 1.205-1.417.506zm-753.67-3.72c-.164-.264.236-.521.888-.57.652-.05 1.027.167.833.481-.43.696-1.318.742-1.721.09zm5.474-1.043c.19-.497.796-.926 1.345-.951.549-.026 2.227-.17 3.73-.32 1.971-.198 2.48-.103 1.822.34-.751.508-.76.617-.05.624.473.005.69.18.482.388-.209.208-2.02.479-4.028.601-3.04.186-3.59.072-3.301-.682zm-247.835-1.47c-.45-.727.693-1.447 1.502-.947.68.42.234 1.512-.617 1.512-.295 0-.693-.254-.885-.565zm5.743-15.796c0-.314.27-.738.6-.942.345-.213.447.03.24.571-.404 1.052-.84 1.245-.84.371zm4.454-.312c0-.487.232-.741.516-.566.284.176.359.574.166.885-.49.794-.682.705-.682-.32zm1058.304-79.278c-.501-.324-.638-.589-.304-.589s1.018.265 1.518.589c.502.323.638.588.304.588s-1.017-.265-1.518-.588zM100.52 115.538c0-.263.547-.478 1.215-.478s1.215.256 1.215.57c0 .313-.547.528-1.215.478-.668-.05-1.215-.307-1.215-.57zm25.432-8.919-1.424-1.153 3.634-.482c1.999-.265 5.068-.498 6.821-.517 1.754-.019 3.188-.22 3.189-.448 0-.472 3.618.47 4.182 1.09.205.225-.47.249-1.5.053-1.154-.219-2.554.004-3.644.58-.974.515-3.205.963-4.959.995-1.753.032-3.188.278-3.188.547 0 .87-1.651.518-3.111-.665zm-7.656.18c.202-.202.726-.224 1.164-.049.485.194.34.338-.367.367-.64.027-.998-.117-.797-.319zM107.25 98.41c-.027-.64.117-.999.319-.797.201.202.223.726.048 1.164-.194.485-.338.34-.367-.367zm16.585-5.104c.17-.274-.25-.978-.934-1.563-1.223-1.047-1.183-1.093 2.515-2.841 4.453-2.106 4.863-2.154 4.863-.563 0 .749-.408 1.218-1.063 1.224-.861.008-.9.113-.204.553.473.3 1.361.448 1.974.33s1.115.063 1.115.404c0 .34-.889.57-1.974.51-1.086-.059-2.52-.075-3.188-.036-1.012.059-1.063.169-.304.66.778.502.756.59-.152.597-.584.006-1.063.283-1.063.617s-.426.607-.946.607c-.521 0-.808-.224-.639-.499zm7.765-4.9c-.61-.378-.586-.631.114-1.213.983-.815 1.766-.103 1.09.991-.242.39-.772.488-1.204.221zm-21.058-25.573c-.207-.334.034-.607.535-.607s1.08.273 1.287.607c.206.334-.035.607-.536.607s-1.08-.273-1.286-.607zm12.438-2.719c.874-1.053 1.226-1.163 1.226-.382 0 .298-.449.714-.997.925-.834.32-.871.23-.23-.543zm858.283-9.8c.712-.712 4.6-1.27 5.385-.773.451.286.547.552.213.59-3.268.375-5.875.46-5.598.183zm-3.687-.75c-.505-.32-.127-.496 1.063-.496 1.015 0 1.846.228 1.846.506 0 .646-1.885.64-2.909-.01zm-15.614-.775c-2.6-.582-8.91-.999-20.703-1.369-4.038-.127-7.927-.543-8.64-.925-.778-.416-3.498-.627-6.777-.527-3.014.092-5.479.106-5.479.03 0-.212 3.533-1.991 3.953-1.991.203 0 .2.273-.005.607-.219.354.399.607 1.482.607 1.022 0 1.858-.273 1.858-.607 0-.334.29-.607.643-.607.354 0 .438.341.187.759-.337.561-.227.599.42.144.482-.338 1.422-.584 2.09-.545.668.038 2.666.11 4.439.16 1.773.049 3.097.294 2.942.545-.155.25 1.4.415 3.456.366 2.056-.05 4.217.166 4.801.477.71.378 1.063.345 1.063-.099 0-.365.33-.46.734-.21.404.249 3.068.528 5.92.619 2.854.091 5.188.198 5.188.237 0 .04 1.366.161 3.036.27 1.67.108 3.105.257 3.189.33.142.127.768.31 1.822.536.483.104-2.368 1.867-2.885 1.785-.167-.027-1.397-.293-2.733-.592zm-24.595-3.036c0-.292-.53-.531-1.179-.531-.648 0-1.326.239-1.507.531-.18.292.35.532 1.179.532.829 0 1.507-.24 1.507-.532zm32.484-1.756c-.21-.34-.636-.46-.947-.267-.31.192-.565.076-.565-.258 0-1.176.98-1.195 1.705-.033.404.647.612 1.176.461 1.176-.15 0-.444-.278-.654-.617zm-13-2.368c-.64-.64-1.29-1.038-1.446-.883-.154.155-1.612.374-3.238.486-2.818.194-6.311-1.058-5.425-1.943.709-.71 4.903-.543 5.819.23.938.792 2.647.818 3.412.052.645-.644 3.742-.503 4.17.19.584.944-.283 3.031-1.258 3.031-.478 0-1.394-.523-2.034-1.164zm6.268.463c-.259-.419-.168-.537.226-.294.362.224.83.13 1.04-.21.566-.916 1.322-.748 1.322.294 0 1.07-1.958 1.228-2.588.21zm-710.003-4.525c.202-.201.725-.223 1.164-.047.484.193.34.337-.367.367-.64.026-1-.118-.797-.32zm122.508-17.244c0-.334.12-.607.268-.607.147 0 .436.273.643.607.206.334.086.607-.268.607s-.643-.273-.643-.607zm14.16.061c-.98-.72-.745-1.755.334-1.473.689.18 1.13-.067 1.194-.67.056-.525.147-1.364.203-1.865.055-.501.602-.945 1.214-.987.613-.042 1.318-.133 1.569-.202.25-.069 1.275-.345 2.277-.615 2.229-.599 3.439-1.493 2.994-2.213-.183-.296.207-.538.867-.538s1.339.342 1.508.76c.214.527.461.56.81.107.891-1.158 2.75-1.52 3.732-.726.787.638.86.622.43-.092-.395-.655-.265-.765.54-.456.584.224 1.43.407 1.881.407.451 0 .985.518 1.186 1.152.235.74.756 1.05 1.458.867 1.55-.406 1.39-1.907-.173-1.62-1.235.228-1.236.22-.05-.344.668-.317 2.14-.596 3.27-.62 1.13-.023 3.726-.31 5.769-.638 5.294-.849 18.602-2.337 24.665-2.758 2.84-.196 6.392-.466 7.895-.598 3.167-.28 9.418-.723 17.611-1.251 3.173-.205 7.546-.523 9.717-.707 5.218-.442 13.432-.475 14.575-.058.501.183 2.072.542 3.492.798 1.42.257 2.58.668 2.58.914 0 .245-.675 1.122-1.5 1.948-1.223 1.222-2.07 1.49-4.558 1.441-1.817-.036-2.973.19-2.85.556.112.338 2.308.637 4.88.664 4.038.043 6.728.83 5.81 1.697-.41.389-8.461.773-8.46.404 0-.18-1.844-.243-4.1-.139-2.254.105-5.667-.058-7.584-.362-1.916-.304-3.613-.423-3.772-.264-.158.158-1.46.346-2.892.416-1.433.07-3.36.34-4.283.598-.998.279-1.99.21-2.449-.171-.424-.352-3.414-.703-6.643-.78-3.998-.096-5.747-.35-5.48-.795.214-.36-.074-.277-.64.183-.71.575-1.802.713-3.502.44-1.622-.259-2.339-.18-2.086.227.43.696.35.71-5.154.857-2.17.059-4.562.321-5.313.584-.752.263-1.367.254-1.367-.019s-.683-.496-1.518-.496-1.518.205-1.518.455-.426.456-.947.456c-.52 0-.804-.231-.63-.513.422-.682-5.817.32-6.27 1.006-.829 1.258-12.194 2.532-12.194 1.368a.647.647 0 0 0-.643-.647c-.354 0-.486.255-.294.566.55.888-.847 1.436-1.751.686-.607-.504-.891-.473-1.119.12-.197.512-1.196.746-2.804.656-1.374-.076-2.498.116-2.498.428 0 1.004-3.12.345-3.726-.788-.322-.602-.85-.931-1.173-.732-.322.2-.447.589-.276.864.17.276-.09.656-.578.843-.489.187-1.053.075-1.253-.25-.223-.36-1-.236-1.993.317-1.868 1.041-7.679 2.147-8.42 1.603zm-8.695-2.758c0-1.067.365-1.224.885-.381.193.31.072.737-.267.946-.34.21-.618-.044-.618-.565zm2.289-1.049c.353-.353 1-.522 1.438-.376.455.151.18.427-.641.642-1.01.264-1.248.185-.797-.266zm209.2-1.54c-.751-.146-1.366-.473-1.366-.728 0-.743 2.64-.339 2.9.444.13.392.146.674.035.629-.111-.046-.817-.201-1.569-.346zm-12.601-1.394c1.67-.718 2.628-.718 1.518 0-.5.324-1.32.574-1.822.555-.6-.022-.497-.211.304-.555zm3.679.056c-.188-.303.206-.407.875-.232 1.418.37 1.597.783.34.783-.481 0-1.028-.248-1.215-.55zm-78.18-1.374c-.956-.96-.522-1.027 6.983-1.073 4.402-.026 8.613-.166 9.357-.31.745-.143 1.495-.032 1.669.248.173.28 1.15.452 2.173.381 2.763-.19 2.776.693.014.957-1.306.124-2.245.016-2.086-.24.498-.807-.437-.508-1.388.444-1.034 1.033-3.599 1.219-4.166.302-.25-.405-.776-.395-1.566.028-1.345.72-2.61.23-1.993-.77.27-.437.12-.479-.445-.124-.47.295-2.356.681-4.193.859-2.629.254-3.557.104-4.36-.702zm48.691.71c0-.334.12-.607.268-.607.147 0 .437.273.643.607.206.334.086.608-.268.608-.353 0-.643-.274-.643-.608zm-24.292-1.214c-.547-.354-.622-.593-.187-.598.398-.006.892.264 1.098.598.466.754.256.754-.91 0zm237.198-.083c.315-.508-2-1.107-2.468-.638-.653.653-3.352.776-3.352.153 0-.385-1.728-.478-4.706-.253-3.652.277-5.183.134-6.833-.635-1.169-.545-1.664-.866-1.101-.713.562.153 1.109.041 1.214-.249.105-.29.601-.616 1.102-.725.501-.108 1.112-.47 1.357-.805.246-.334.45-.008.456.723.009 1.258.1 1.283 1.679.458 1.498-.782 1.757-.763 2.51.188.8 1.009.824 1.009.475 0-.282-.82-.03-1.062 1.103-1.062.808 0 1.748.478 2.088 1.062.344.59.627.725.638.304.019-.795 1.84-1.096 1.84-.304 0 .25 2.066.44 4.59.42 2.526-.019 4.728.186 4.895.456.167.27.888.49 1.603.49 1.04 0 1.149.152.541.76-.76.76-8.091 1.118-7.63.372zm9.97-.018c0-.279.205-.525.455-.547.25-.023 1.33-.156 2.399-.296 2.402-.314 3.258.728.946 1.154-2.285.42-3.8.296-3.8-.311zm-43.725-2.025c0-.334-1.025-.607-2.277-.607-1.253 0-2.479.273-2.724.607-.298.405-.45.405-.457 0-.013-.76-3.652-.94-3.652-.18 0 .306-.248.402-.552.215-.578-.358-5.92-.932-11.594-1.246-1.837-.102-3.34-.246-3.34-.321 0-.407-7.99-.414-8.501-.007-.913.726-6.984 1.232-6.984.582 0-.308-.41-.56-.911-.56-.501 0-.911.263-.911.585 0 .366-4.278.478-11.387.299-6.263-.158-12.046-.285-12.852-.281-.805.005-2.377-.246-3.492-.554-1.219-.336-2.027-.338-2.027-.005 0 .552-2.124.462-2.7-.114-.166-.166-2.93-.205-6.141-.086-3.87.143-6.128-.024-6.697-.496-.669-.555-.86-.528-.868.121-.007.527-.173.6-.455.2-.268-.382-3.723-.665-8.645-.71-4.509-.042-18.173-.233-30.364-.424-12.192-.19-27.837-.383-34.768-.428-6.93-.044-12.601-.252-12.602-.46 0-.21-1.504-.38-3.34-.38-1.837 0-3.34.204-3.34.455 0 .25-.288.455-.642.455-.354 0-.474-.273-.268-.607.206-.334-.05-.608-.571-.608-.521 0-.947-.273-.947-.607 0-.334-.29-.607-.643-.607-.354 0-.475.273-.268.607.222.36-.447.604-1.634.598-1.521-.007-1.788-.152-1.099-.598.673-.434.701-.59.109-.598-.619-.007-.594-.218.108-.92.501-.5 1.477-.91 2.169-.91s1.258-.292 1.258-.649c0-.384.525-.482 1.29-.238.869.275 1.155.19.876-.263-.229-.37-.254-.673-.057-.673.198 0 .567.562.821 1.25l.462 1.248 1.602-1.26c1.097-.863 1.734-1.044 2.023-.576.3.484.57.443.931-.141.414-.67 4.58-.82 22.242-.802 11.953.013 26.652.199 32.664.413 6.012.215 15.987.549 22.166.743 22.313.699 28.06.953 28.56 1.262 1.118.69 6.011 1.303 6.752.845.457-.282.989-.182 1.262.239.351.542.623.496 1.07-.184.328-.501.602-.638.607-.304.007.383 3.762.58 10.182.534 10.144-.073 27.478.907 27.48 1.554 0 .188 2.118.31 4.706.273 4.435-.064 14.653.767 16.464 1.34.669.21.681.438.066 1.179-.62.746-.604.868.084.65.465-.146 1.608-.434 2.54-.639 1.044-.229 1.56-.656 1.343-1.113-.193-.408-.032-.314.357.21.573.768 1.353.862 4.08.492 1.918-.26 3.831-.212 4.437.112.586.314 1.834.607 2.775.653 1.575.076 1.594.104.245.359-1.134.213-1.271.399-.607.819.938.594.15.668-8.404.792-2.984.043-5.01-.173-5.01-.535zm-176.5-5.462c-.192-.499-.594-.756-.893-.571-.857.53-.634 1.479.349 1.479.541 0 .755-.357.543-.908zm-35.42 2.076c.625-1.168.588-1.3-.272-.97-.857.329-.896.196-.278-.959l.717-1.34.604 1.354c.694 1.553 1.948 1.78 2.46.443.193-.501.13-.91-.137-.91-.268 0-.487-.414-.487-.92 0-.746.549-.845 2.935-.528 2.006.266 2.935.172 2.935-.296 0-.381.961-.686 2.162-.686 1.417 0 2.019.23 1.748.668-.293.475-.044.47.862-.014 1.059-.567 1.214-.526.92.243-.196.509-.6.925-.898.925-.298 0-.542.273-.542.607 0 1.266 1.097.534 1.821-1.214.845-2.04.867-2.051 2.39-1.236.767.41 1.005 1.052.795 2.15-.165.86-.06 1.486.232 1.388.292-.097.667.09.834.417.18.35-1.263.635-3.533.696-3.508.094-3.894-.022-4.5-1.353-.654-1.434-2.898-2.063-2.898-.812 0 .354.27.476.6.272.34-.21.45.023.254.533-.203.528-.746.751-1.307.536-.625-.24-.81-.126-.533.324.489.79-1.53 1.374-3.872 1.12-.835-.09-2.017.078-2.627.375-.994.484-1.034.4-.385-.813zm16.613-2.282c.172-.278-.073-.506-.544-.506-.472 0-.717.228-.545.506.172.279.417.506.545.506.127 0 .372-.227.544-.506zm-24.793 2.397c-.183-.296.212-.68.877-.854.806-.211 1.087-.64.84-1.284-.205-.532-.115-.967.2-.967.832 0 .698 1.984-.196 2.877-.906.907-1.272.955-1.721.228zm3.724-1.688c.17-.446.389-.81.484-.81.095 0 .314.364.484.81.171.445-.047.81-.484.81s-.655-.365-.484-.81zm2.342-1.702c.648-.49 1.777-.9 2.51-.91 1.448-.022 2.37.9 1.463 1.46-.31.192-.67.036-.798-.348-.175-.525-.555-.526-1.53-.006-1.867 1-3.04.858-1.645-.197zm-8.07-.082c.202-.202.726-.223 1.164-.048.484.194.34.338-.367.367-.64.026-.999-.117-.797-.319zm32.022-.24c-.779-.504-.757-.59.152-.599.584-.005 1.062.264 1.062.598 0 .741-.068.741-1.214 0zm-3.262-.925c-.29-.755-.133-.807.846-.283 1.408.754 1.542 1.207.355 1.207-.465 0-1.005-.416-1.2-.924z" />
</svg>